<svg width="45" height="45" viewBox="0 0 45 45" fill="none" xmlns="http://www.w3.org/2000/svg">
<path d="M27.675 20.9813C27.4139 20.9802 27.1555 21.0337 26.9162 21.1383C26.677 21.2429 26.4622 21.3963 26.2857 21.5887C26.1092 21.7811 25.9748 22.0082 25.8912 22.2556C25.8076 22.5029 25.7765 22.765 25.8 23.025H29.6625C29.6874 22.7552 29.6536 22.4832 29.5633 22.2278C29.4731 21.9723 29.3285 21.7394 29.1396 21.5452C28.9508 21.3509 28.722 21.2 28.4692 21.1026C28.2163 21.0052 27.9454 20.9638 27.675 20.9813ZM17.7937 23.0625H15.4875V26.7H17.3625C19.2375 26.7 20.0625 26.0813 20.0625 24.825C20.0625 23.5688 19.2 23.0625 17.7937 23.0625ZM19.425 19.725C19.425 18.7313 18.7687 18.1313 17.6437 18.1313H15.4875V21.3938H17.0812C18.75 21.3938 19.425 20.7938 19.425 19.725Z" fill="#C1557B"/>
<path d="M22.5 3.75C18.7916 3.75 15.1665 4.84967 12.0831 6.90994C8.99964 8.97022 6.59641 11.8986 5.17727 15.3247C3.75812 18.7508 3.38681 22.5208 4.11028 26.1579C4.83376 29.7951 6.61952 33.136 9.24176 35.7582C11.864 38.3805 15.2049 40.1662 18.8421 40.8897C22.4792 41.6132 26.2492 41.2419 29.6753 39.8227C33.1014 38.4036 36.0298 36.0004 38.0901 32.9169C40.1503 29.8335 41.25 26.2084 41.25 22.5C41.25 20.0377 40.765 17.5995 39.8227 15.3247C38.8805 13.0498 37.4994 10.9828 35.7583 9.24175C34.0172 7.50065 31.9502 6.11953 29.6753 5.17726C27.4005 4.23498 24.9623 3.75 22.5 3.75ZM18.1875 28.5H13.125V16.3125H18.1875C20.3813 16.3125 21.825 17.4562 21.825 19.3125C21.8509 19.9361 21.6537 20.5485 21.2689 21.0399C20.884 21.5313 20.3367 21.8694 19.725 21.9937C20.1126 22.0027 20.4943 22.0907 20.8468 22.2523C21.1992 22.4139 21.515 22.6457 21.7748 22.9336C22.0345 23.2214 22.2328 23.5593 22.3575 23.9264C22.4822 24.2935 22.5307 24.6822 22.5 25.0687C22.5 27.2437 20.625 28.5 18.1875 28.5ZM24.8438 17.25H30.4688V18.1875H24.8438V17.25ZM31.875 24.4687H25.6875V24.7312C25.6553 25.0162 25.6845 25.3047 25.7731 25.5774C25.8618 25.85 26.0079 26.1005 26.2016 26.312C26.3953 26.5234 26.632 26.6909 26.8959 26.8031C27.1598 26.9153 27.4446 26.9697 27.7313 26.9625C28.1337 27.025 28.5452 26.9399 28.8898 26.7228C29.2344 26.5057 29.4889 26.1713 29.6063 25.7812H31.875C31.673 26.6813 31.1463 27.4753 30.3957 28.0114C29.6451 28.5476 28.7232 28.7883 27.8063 28.6875C27.2202 28.7467 26.6284 28.6767 26.0723 28.4825C25.5162 28.2884 25.0094 27.9747 24.5876 27.5636C24.1658 27.1525 23.8392 26.654 23.6308 26.1031C23.4223 25.5522 23.3372 24.9623 23.3813 24.375V23.55C23.3414 22.9809 23.4252 22.4099 23.6267 21.8762C23.8283 21.3424 24.1429 20.8586 24.549 20.4579C24.955 20.0572 25.443 19.749 25.9793 19.5545C26.5157 19.3601 27.0877 19.2839 27.6563 19.3312C28.2229 19.2949 28.7908 19.3804 29.3216 19.582C29.8525 19.7836 30.334 20.0965 30.7337 20.4998C31.1334 20.9031 31.4421 21.3874 31.639 21.92C31.8359 22.4526 31.9163 23.0212 31.875 23.5875V24.4687Z" fill="#C1557B"/>
</svg>
