<svg width="38" height="37" viewBox="0 0 38 37" fill="none" xmlns="http://www.w3.org/2000/svg">
<g clip-path="url(#clip0_2_4)">
<path d="M19.494 18.4667C19.5567 18.4445 19.6232 18.4278 19.6897 18.4093C19.5212 18.0455 19.3444 17.6853 19.1596 17.3289C15.5876 18.3594 12.1676 18.3686 11.5577 18.3594C11.552 18.4056 11.552 18.4537 11.552 18.5C11.552 20.2482 12.198 21.928 13.3722 23.2471C13.7636 22.6329 15.8384 19.6192 19.494 18.4667ZM14.4837 24.259C15.5171 25.0302 16.7404 25.5235 18.0311 25.6897C19.3219 25.856 20.6348 25.6892 21.8386 25.2062C21.4896 23.3615 20.9668 21.5519 20.2768 19.8005C16.2469 21.188 14.725 23.8002 14.4837 24.259ZM23.8545 12.9999C22.9763 12.2654 21.9343 11.7404 20.8113 11.4664C19.6883 11.1925 18.5151 11.1772 17.385 11.4219C18.3766 12.7336 19.2785 14.1074 20.0849 15.5344C22.5226 14.6224 23.6246 13.307 23.8545 12.9999ZM18.4395 16.0284C17.6206 14.6302 16.7231 13.277 15.751 11.975C14.7475 12.4511 13.8661 13.1399 13.1714 13.9907C12.4767 14.8416 11.9864 15.833 11.7363 16.8923H11.7686C12.54 16.8923 15.2817 16.8313 18.4395 16.0284ZM21.8766 19.4176C22.7601 21.8096 23.1667 23.7965 23.2826 24.4329C24.9019 23.3214 26.0015 21.6292 26.3397 19.7284C25.3558 19.4563 24.3378 19.3187 23.3149 19.3195C22.8247 19.3195 22.3402 19.3528 21.8766 19.4176ZM19 0.73999C8.92621 0.73999 0.76001 8.69129 0.76001 18.5C0.76001 28.3087 8.92621 36.26 19 36.26C29.0738 36.26 37.24 28.3087 37.24 18.5C37.24 8.69129 29.0738 0.73999 19 0.73999ZM19 27.1894C16.6334 27.1875 14.3643 26.2715 12.6905 24.6424C11.0167 23.0134 10.0749 20.8043 10.0719 18.5C10.0739 16.195 11.0152 13.985 12.6891 12.3552C14.363 10.7253 16.6327 9.8088 19 9.80684C21.3668 9.80978 23.6357 10.7267 25.3091 12.3564C26.9825 13.9861 27.9237 16.1955 27.9262 18.5C27.9237 20.8041 26.9824 23.0132 25.3089 24.6423C23.6354 26.2714 21.3664 27.1875 19 27.1894ZM20.7518 16.7869C20.9171 17.1199 21.071 17.4473 21.2116 17.7692L21.3465 18.0837C21.8728 18.0227 22.4352 17.9931 23.0223 17.9931C24.1706 17.9953 25.3162 18.1019 26.4442 18.3113C26.4008 16.7356 25.8327 15.2163 24.8254 13.9823C24.5214 14.3634 23.2712 15.7638 20.7518 16.7869Z" fill="#C1557B"/>
</g>
<defs>
<clipPath id="clip0_2_4">
<rect width="38" height="37" fill="white"/>
</clipPath>
</defs>
</svg>
