<svg width="38" height="37" viewBox="0 0 38 37" fill="none" xmlns="http://www.w3.org/2000/svg">
<g clip-path="url(#clip0_2_21)">
<path d="M19 0.73999C8.92621 0.73999 0.76001 8.69129 0.76001 18.5C0.76001 28.3087 8.92621 36.26 19 36.26C29.0738 36.26 37.24 28.3087 37.24 18.5C37.24 8.69129 29.0738 0.73999 19 0.73999ZM26.4195 15.2884C26.4271 15.4401 26.429 15.5918 26.429 15.7398C26.429 20.3648 22.8171 25.6946 16.2089 25.6946C14.2563 25.6978 12.3442 25.1518 10.7027 24.1221C10.982 24.1554 11.2689 24.1684 11.5596 24.1684C13.243 24.1684 14.7915 23.6115 16.0208 22.6717C15.2717 22.6574 14.5458 22.4159 13.9443 21.9808C13.3429 21.5457 12.8958 20.9388 12.6654 20.2445C13.2034 20.3442 13.7576 20.3233 14.2861 20.1835C13.473 20.0234 12.7418 19.5944 12.2165 18.9693C11.6911 18.3441 11.404 17.5613 11.4038 16.7536V16.711C11.8883 16.9719 12.4431 17.131 13.0321 17.1495C12.2698 16.6554 11.7302 15.8964 11.5236 15.0278C11.317 14.1591 11.459 13.2465 11.9206 12.4764C12.823 13.5568 13.9484 14.4406 15.2239 15.0707C16.4994 15.7007 17.8965 16.0629 19.3249 16.1338C19.1433 15.3833 19.2215 14.5954 19.5472 13.8926C19.873 13.1898 20.4281 12.6114 21.1262 12.2475C21.8244 11.8835 22.6265 11.7544 23.4078 11.8801C24.1891 12.0058 24.9059 12.3793 25.4467 12.9426C26.2507 12.7877 27.0218 12.5005 27.7267 12.0934C27.4587 12.904 26.8977 13.5923 26.1478 14.0304C26.86 13.9469 27.5555 13.7604 28.2112 13.4772C27.7295 14.18 27.1228 14.7934 26.4195 15.2884Z" fill="#C1557B"/>
</g>
<defs>
<clipPath id="clip0_2_21">
<rect width="38" height="37" fill="white"/>
</clipPath>
</defs>
</svg>
