<svg width="50" height="50" viewBox="0 0 50 50" fill="none" xmlns="http://www.w3.org/2000/svg">
<path d="M17.6667 27.375H19.1875V34.8958H20.6459V27.375H22.1667V26.1042H17.6667V27.375ZM25.3542 33.3333C25.1042 33.625 24.25 34.2083 24.25 33.375V28.3958H22.9584V33.8333C22.9584 35.4792 24.6042 35.0417 25.375 34.1875V34.8958H26.6667V28.3958H25.375V33.3333H25.3542ZM30.1667 28.3542C29.4167 28.3542 28.9375 28.9167 28.9375 28.9167V26.0833H27.625V34.8958H28.9375V34.3958C28.9375 34.3958 29.375 34.9792 30.1667 34.9792C30.8542 34.9792 31.375 34.375 31.375 33.5417V29.9375C31.375 28.9583 30.9167 28.3542 30.1667 28.3542ZM30.0209 33.375C30.0209 33.8542 29.6875 34.0833 29.25 33.8958C29.1319 33.8406 29.0257 33.7628 28.9375 33.6667V29.625C29.0209 29.5417 29.125 29.4792 29.2084 29.4167C29.6667 29.1875 30.0209 29.5417 30.0209 30.0208V33.375ZM34.8334 33.0417C34.8334 33.5417 34.5625 33.875 34.25 33.8958C33.9167 33.9167 33.5834 33.6458 33.5834 33.0417V31.8125H36.0625V30.1458C36.0689 29.8921 36.0242 29.6396 35.9312 29.4034C35.8381 29.1672 35.6986 28.9521 35.5209 28.7708C35.1625 28.4439 34.6934 28.2652 34.2084 28.2708C33.75 28.2708 33.2709 28.4167 32.8959 28.7083C32.5 29.0208 32.25 29.5 32.25 30.1458V33.0625C32.25 33.6458 32.4375 34.1042 32.7292 34.4375C33.0834 34.8125 33.5625 35.0208 34.0625 35.0417C34.6667 35.0625 35.3125 34.8125 35.6875 34.2917C35.9167 33.9792 36.0625 33.5625 36.0625 33.0625V32.7292H34.8334V33.0417ZM33.5834 30.1458C33.5834 29.7917 33.7917 29.375 34.1875 29.375C34.5834 29.375 34.8334 29.75 34.8334 30.1458V30.8125H33.5834V30.1458Z" fill="#C1557B"/>
<path d="M27.0208 6.25C24.5584 6.25014 22.1201 6.73528 19.8452 7.67774C17.5703 8.62019 15.5032 10.0015 13.7621 11.7428C12.021 13.4841 10.64 15.5513 9.69775 17.8263C8.75555 20.1013 8.27068 22.5397 8.27081 25.0021C8.27095 27.4645 8.7561 29.9028 9.69855 32.1777C10.641 34.4526 12.0223 36.5197 13.7636 38.2608C15.5049 40.0019 17.5721 41.3829 19.8471 42.3251C22.1221 43.2673 24.5605 43.7522 27.0229 43.7521C31.996 43.7518 36.7653 41.776 40.2816 38.2593C43.7979 34.7426 45.7732 29.9731 45.7729 25C45.7726 20.0269 43.7968 15.2576 40.2801 11.7413C36.7634 8.22501 31.9939 6.24972 27.0208 6.25ZM30.3125 13.2708H31.9792V18.8542C31.9792 19.2083 32.1458 19.2083 32.2083 19.2083C32.4583 19.2083 32.8333 18.9375 33.0208 18.75V13.25H34.6875V20.625H33.0208V19.9792C32.7917 20.1875 32.5625 20.3542 32.3333 20.4792C32.0208 20.6458 31.7292 20.7083 31.4375 20.7083C31.2778 20.716 31.1184 20.6882 30.9707 20.627C30.823 20.5657 30.6907 20.4726 30.5833 20.3542C30.3958 20.125 30.3125 19.7708 30.3125 19.3333V13.2708ZM25 15.2083C25 14.0625 25.9375 13.125 27.0833 13.125C28.2291 13.125 29.1666 14.0625 29.1666 15.2083V18.75C29.1666 19.8958 28.2291 20.8333 27.0833 20.8333C25.9375 20.8333 25 19.8958 25 18.75V15.2083ZM20.6666 10.7292L21.6666 14.3958L22.6875 10.7292H24.5833L22.625 16.5208V20.625H20.7708V16.5208L18.7708 10.7292H20.6666ZM37.125 36.8542C36.0625 37.8958 27.0625 37.9167 27.0625 37.9167C27.0625 37.9167 18.0833 37.8958 17 36.8542C15.9375 35.8125 15.9375 30.625 15.9375 30.5833C15.9375 30.5625 15.9375 25.375 17 24.3125C18.0625 23.2708 27.0625 23.25 27.0625 23.25C27.0625 23.25 36.0416 23.2708 37.125 24.3125C38.1875 25.3542 38.2083 30.5417 38.2083 30.5833C38.2083 30.5833 38.2083 35.7917 37.125 36.8542Z" fill="#C1557B"/>
<path d="M27.0417 19.4792C27.3959 19.4792 27.5625 19.2708 27.5834 18.9375V14.9792C27.5834 14.7083 27.3125 14.4792 27.0625 14.4792C26.8125 14.4792 26.5417 14.6875 26.5417 14.9792V18.9375C26.5417 19.25 26.6875 19.4583 27.0417 19.4792Z" fill="#C1557B"/>
</svg>
